<?xml version="1.0" encoding="UTF-8" standalone="no"?>
<!-- Created with Inkscape (http://www.inkscape.org/) -->

<svg
   version="1.1"
   id="svg1"
   width="602.56"
   height="57.283066"
   viewBox="0 0 602.56 57.283066"
   xmlns="http://www.w3.org/2000/svg"
   xmlns:svg="http://www.w3.org/2000/svg">
  <defs
     id="defs1" />
  <g
     id="g1"
     transform="translate(-21.440001,-128.89923)">
    <path
       style="fill:#000000"
       d="m 89.53926,185.92536 c -8.842674,-1.1101 -14.514132,-6.08767 -16.641667,-14.60561 -0.989487,-3.96157 -0.977671,-11.23726 0.02436,-14.99975 1.065977,-4.00259 2.400535,-6.41534 4.971518,-8.98802 4.248786,-4.25159 8.938548,-5.77106 16.955181,-5.49342 3.724614,0.129 4.966568,0.30398 7.121708,1.0034 7.40819,2.40423 11.47083,7.99115 12.59315,17.31804 0.66687,5.54189 -0.25118,11.89768 -2.33061,16.13515 -1.30827,2.66601 -4.49935,5.92458 -7.17244,7.32413 -1.08874,0.57004 -3.04893,1.30994 -4.35597,1.64423 -2.817825,0.72067 -8.169591,1.03792 -11.16523,0.66185 z m 7.44266,-8.83549 c 1.332001,-0.39095 2.125459,-0.90741 3.39612,-2.21053 2.12785,-2.18221 2.9673,-4.65058 3.21018,-9.43934 0.38945,-7.67878 -1.691,-12.8055 -5.94356,-14.64635 -1.480764,-0.64099 -5.764978,-0.70468 -7.791265,-0.11581 -4.335369,1.25991 -6.65801,5.85351 -6.648665,13.14939 0.0074,5.7801 0.966075,8.91721 3.463435,11.33357 2.327657,2.25217 6.533001,3.03873 10.313755,1.92907 z M 140,185.78431 c -6.62084,-1.31516 -10.90562,-4.40853 -13.55276,-9.78431 -1.84261,-3.74196 -2.39912,-6.52214 -2.40206,-12 -0.003,-5.19963 0.48708,-7.66698 2.25368,-11.35116 1.67193,-3.48674 5.07943,-6.82933 8.74114,-8.57463 6.39651,-3.04881 14.56819,-3.38209 22.96748,-0.9367 1.45612,0.42393 2.7354,0.85871 2.84286,0.96616 0.17034,0.17035 -2.39625,6.77326 -3.03377,7.8048 -0.17598,0.28474 -0.79434,0.18045 -2.41225,-0.40681 -4.97657,-1.8064 -10.94076,-1.77057 -14.3523,0.0862 -5.33222,2.90216 -7.66949,10.98196 -5.34884,18.49063 1.87174,6.0562 6.38294,8.38562 14.17216,7.31799 L 151.36,177.19301 V 173.0765 168.96 h -4.16956 -4.16956 l 0.0896,-4.08 0.0896,-4.08 9.2,-0.0849 9.2,-0.0849 v 11.48985 11.48985 l -2.55633,0.68977 c -6.42966,1.73491 -14.58363,2.3706 -19.04367,1.48465 z m 337.61245,0.0997 c -11.50378,-1.67597 -17.34817,-9.8732 -16.72308,-23.45549 0.35385,-7.68849 3.2538,-13.47937 8.47964,-16.93288 5.58625,-3.69169 13.63213,-4.6797 21.5442,-2.64558 2.96032,0.76106 5.40679,1.64649 5.40679,1.95682 0,0.29504 -3.27035,7.99132 -3.50323,8.24432 -0.12719,0.13819 -0.90993,-0.0397 -1.73941,-0.39523 -4.32005,-1.85178 -9.52433,-2.22743 -12.42995,-0.89719 -2.20177,1.008 -3.66206,2.50199 -4.76902,4.87905 -2.71766,5.83587 -1.56307,15.1646 2.26859,18.32934 3.12997,2.58518 8.71834,2.85219 15.08081,0.72057 1.58875,-0.53228 2.95243,-0.96778 3.03042,-0.96778 0.078,0 0.14179,2.07478 0.14179,4.61062 v 4.61063 l -2,0.6826 c -4.08655,1.39475 -10.25548,1.92047 -14.78755,1.2602 z m 43.28681,0.0413 c -8.84267,-1.1101 -14.51413,-6.08767 -16.64167,-14.60561 -0.98948,-3.96157 -0.97767,-11.23726 0.0244,-14.99975 1.06598,-4.00259 2.40054,-6.41534 4.97152,-8.98802 4.24879,-4.25159 8.93855,-5.77106 16.95518,-5.49342 3.72462,0.129 4.96657,0.30398 7.12171,1.0034 7.40819,2.40423 11.47083,7.99115 12.59315,17.31804 0.66687,5.54189 -0.25118,11.89768 -2.33061,16.13515 -1.30827,2.66601 -4.49935,5.92458 -7.17244,7.32413 -1.08874,0.57004 -3.04893,1.30994 -4.35597,1.64423 -2.81782,0.72067 -8.16959,1.03792 -11.16523,0.66185 z m 7.44266,-8.83549 c 1.332,-0.39095 2.12546,-0.90741 3.39612,-2.21053 2.12785,-2.18221 2.9673,-4.65058 3.21018,-9.43934 0.38945,-7.67878 -1.691,-12.8055 -5.94356,-14.64635 -1.48076,-0.64099 -5.76498,-0.70468 -7.79126,-0.11581 -4.33537,1.25991 -6.65802,5.85351 -6.64867,13.14939 0.007,5.7801 0.96608,8.91721 3.46343,11.33357 2.32766,2.25217 6.53301,3.03873 10.31376,1.92907 z M 21.44,157.27421 v -28.37498 l 12.88,0.15404 c 13.626992,0.16297 15.169815,0.31082 19.28,1.84767 2.410425,0.90129 3.174801,1.36794 4.906939,2.9957 3.071026,2.88596 4.288916,7.81952 3.137701,12.71054 -0.872647,3.70751 -3.784685,7.03694 -7.264483,8.30574 -1.711099,0.6239 -2.253106,1.24708 -1.084638,1.24708 0.251761,0 1.404427,0.37898 2.56148,0.84218 2.696814,1.07961 5.256111,3.38815 6.448845,5.81699 0.84959,1.73008 0.894156,2.04412 0.894156,6.30083 0,4.38065 -0.02282,4.52817 -1.028818,6.65203 -2.043697,4.31464 -6.054056,7.42666 -11.515028,8.93562 -2.33074,0.64402 -3.381489,0.69807 -15.856154,0.81563 l -13.36,0.12591 z m 25.207308,17.95105 c 4.446177,-1.88797 5.722279,-8.61567 2.286,-12.05195 -1.840626,-1.84063 -3.48162,-2.24999 -9.813308,-2.44802 l -5.52,-0.17264 v 7.75419 7.7542 l 5.84,-0.12759 c 4.720441,-0.10314 6.10212,-0.2389 7.207308,-0.70819 z M 45.6,150.91357 c 2.783387,-1.1906 4.193648,-3.61409 3.932885,-6.75856 -0.163645,-1.97334 -0.827298,-3.10362 -2.484666,-4.23166 -1.63634,-1.11374 -2.983452,-1.36724 -8.408219,-1.5823 l -5.04,-0.19981 v 6.81031 6.81031 l 5.36,-0.15038 c 4.08688,-0.11467 5.664029,-0.28043 6.64,-0.69791 z m 128.16,13.09464 v -21.65363 l 10.8,0.12983 c 11.99854,0.14424 12.56741,0.22486 17.04,2.41487 4.82871,2.36438 8.21248,6.81698 9.46748,12.45798 0.83549,3.75536 0.51785,10.92756 -0.63431,14.32274 -1.18473,3.49115 -2.52409,5.61442 -5.04685,8.00074 -2.45359,2.3209 -5.5573,3.97754 -9.38632,5.01006 -2.29019,0.61757 -3.59708,0.70512 -12.4,0.83068 l -9.84,0.14036 z m 19.10588,11.84253 c 2.49045,-0.75818 4.23869,-2.2522 5.45872,-4.66493 1.33977,-2.64955 1.79314,-5.1832 1.57215,-8.78581 -0.29145,-4.75139 -1.49349,-7.50366 -4.05133,-9.27624 -1.86726,-1.29402 -3.88506,-1.76376 -7.57628,-1.76376 H 184.96 v 12.42667 c 0,6.83466 0.108,12.53933 0.24,12.67704 0.37203,0.3881 5.8044,-0.0463 7.66588,-0.61297 z M 218.54894,182 c 0.68442,-1.98 4.0629,-11.64717 7.50773,-21.4826 3.44483,-9.83542 6.26333,-17.93542 6.26333,-18 0,-0.0646 3.06601,-0.1174 6.81336,-0.1174 h 6.81335 l 7.48131,21.2 c 4.11471,11.66 7.54411,21.38 7.62088,21.6 0.10822,0.31016 -1.12818,0.4 -5.50471,0.4 -4.23077,0 -5.67776,-0.10017 -5.77799,-0.4 -0.0736,-0.22 -0.73307,-2.31052 -1.46562,-4.64561 l -1.3319,-4.24561 -7.69784,0.0856 -7.69785,0.0856 -0.4093,1.28 c -0.22511,0.704 -0.86022,2.756 -1.41134,4.56 l -1.00205,3.28 h -5.72288 -5.72289 z M 244.48,167.52207 c 0,-0.16624 -4.2502,-14.78946 -4.91907,-16.92452 l -0.38923,-1.24245 -0.89654,3.64245 c -0.69466,2.82227 -3.19603,11.33007 -4.19917,14.28245 -0.10509,0.30931 1.05894,0.4 5.13405,0.4 2.89848,0 5.26996,-0.0711 5.26996,-0.15793 z M 269.12,164 v -21.6 h 6.83168 6.83167 l 8.97754,15.54195 8.97754,15.54196 -0.17828,-15.54196 L 300.38187,142.4 h 4.84907 4.84906 v 21.6 21.6 h -6.86268 -6.86268 l -9.03233,-15.83832 c -4.96779,-8.71107 -9.04955,-15.80307 -9.07059,-15.76 -0.021,0.0431 0.0614,3.03032 0.18309,6.63832 0.12173,3.608 0.2357,10.7 0.25326,15.76 l 0.0319,9.2 h -4.8 -4.8 z m 74.56,-6.74686 v -28.34686 l 11.92,0.131 c 11.01597,0.12106 12.11415,0.18392 14.48,0.82873 6.89624,1.87957 10.90499,5.73978 12.3281,11.87129 0.54089,2.33044 0.45394,7.73175 -0.16263,10.1027 -1.6681,6.41444 -5.95829,10.70614 -12.64775,12.65222 -1.91488,0.55707 -3.54153,0.73073 -8.07772,0.86235 l -5.68,0.16482 V 175.5597 185.6 h -6.08 -6.08 z m 21.8984,-2.54213 c 1.98407,-0.71772 4.06703,-2.76439 4.58805,-4.50814 0.21645,-0.72442 0.39039,-2.30842 0.38652,-3.52 -0.008,-2.50799 -0.6713,-4.27435 -2.11262,-5.62589 -1.70729,-1.60095 -3.08901,-1.96387 -8.04035,-2.11186 l -4.56,-0.13629 v 8.39342 8.39343 l 4.08,-0.15686 c 2.77013,-0.10649 4.58674,-0.34015 5.6584,-0.72781 z M 392,164 v -21.6 h 8.92465 c 6.785,0 9.56606,0.12105 11.6,0.50491 5.04616,0.95234 8.48379,3.25791 10.14691,6.80537 0.75682,1.61429 0.84844,2.18984 0.84844,5.32972 0,3.40092 -0.037,3.58834 -1.09526,5.54003 -1.14125,2.10485 -3.59845,4.58798 -5.38474,5.44155 -0.572,0.27332 -1.04,0.60053 -1.04,0.72713 0,0.1266 2.78033,4.23993 6.17851,9.14073 3.39818,4.90081 6.28668,9.09056 6.41888,9.31056 0.18884,0.31423 -1.02526,0.4 -5.66218,0.4 h -5.90255 l -5.07812,-8.08 -5.07813,-8.08 -1.9982,-0.0953 -1.99821,-0.0953 V 177.42473 185.6 H 397.44 392 Z m 18.12872,-3.71899 c 2.19771,-1.10175 2.81819,-2.1102 2.82537,-4.592 0.0106,-3.65089 -1.82249,-5.03202 -6.95203,-5.23805 l -3.12206,-0.1254 v 5.52161 5.5216 l 2.86535,-0.16337 c 2.1416,-0.12211 3.24878,-0.3556 4.38337,-0.92439 z M 432.32,182.63395 v -2.96605 l 2.48,-0.92839 c 1.364,-0.51061 2.66155,-1.06681 2.88344,-1.23599 0.31567,-0.24067 0.38529,-3.22882 0.32,-13.73493 l -0.0834,-13.42733 -2.8,-1.14584 -2.8,-1.14584 V 145.22479 142.4 h 10.89246 10.89246 l -0.0925,2.76619 c -0.10336,3.09242 0.11341,2.80487 -3.21246,4.26122 l -2.16,0.94582 v 13.56832 13.56831 l 2.64,1.09162 2.64,1.09161 0.092,2.95346 0.092,2.95345 H 443.21201 432.32 Z M 557.12,164 v -21.6 l 9.52,0.006 c 7.16413,0.004 10.07294,0.12268 11.75442,0.47885 4.63269,0.98131 7.74334,3.29761 9.51618,7.08608 0.80527,1.72082 1.00993,2.6288 1.13606,5.04018 0.24781,4.73771 -0.90287,8.34517 -3.53593,11.0854 -3.12377,3.25092 -6.37836,4.44679 -12.79073,4.69982 l -4.4,0.17363 v 7.31524 7.31524 h -5.6 -5.6 z m 18.0011,-2.78566 c 1.81821,-1.00679 2.63688,-2.50612 2.60609,-4.77284 -0.029,-2.13555 -0.94423,-3.8601 -2.47808,-4.66952 -0.65047,-0.34326 -2.06111,-0.58152 -3.96911,-0.67042 l -2.96,-0.1379 v 5.6857 5.6857 l 2.73746,-0.19318 c 1.98818,-0.14031 3.10045,-0.39419 4.06364,-0.92754 z M 597.76,164 V 142.4 H 610.88 624 v 4.32 4.32 h -7.52 -7.52 v 4 4 h 7.04 7.04 v 4.32 4.32 H 616 608.96 v 4.48 4.48 h 7.52 7.52 v 4.48 4.48 h -13.12 -13.12 z"
       id="path1" />
  </g>
</svg>
