<svg xmlns="http://www.w3.org/2000/svg" viewBox="0 17.75 378.3999938964844 36.150001525878906" data-asc="1.069" width="378.3999938964844" height="36.150001525878906"><defs/><g><g fill="#f75c7e"><g transform="translate(0, 0)"><path d="M10.75 17.75Q17.70 17.75 21.27 19.75Q24.85 21.75 24.85 26.70Q24.85 28.75 24.15 30.40Q23.45 32.05 22.13 33.10Q20.80 34.15 18.85 34.50L18.85 34.75Q20.85 35.10 22.43 36.02Q24 36.95 24.93 38.67Q25.85 40.40 25.85 43.20Q25.85 46.45 24.30 48.75Q22.75 51.05 19.88 52.25Q17 53.45 13.05 53.45L0 53.45L0 17.75L10.75 17.75M11.60 32.30Q15.40 32.30 16.83 31.10Q18.25 29.90 18.25 27.55Q18.25 25.15 16.55 24.10Q14.85 23.05 11.10 23.05L6.40 23.05L6.40 32.30L11.60 32.30M6.40 37.45L6.40 48.10L12.20 48.10Q16.10 48.10 17.63 46.60Q19.15 45.10 19.15 42.60Q19.15 41.00 18.50 39.85Q17.85 38.70 16.25 38.07Q14.65 37.45 11.90 37.45L6.40 37.45ZM44.95 53.80Q41.55 53.80 39.05 52.80Q36.55 51.80 34.93 49.95Q33.30 48.10 32.50 45.55Q31.70 43.00 31.70 39.85Q31.70 35.65 33.13 32.52Q34.55 29.40 37.50 27.67Q40.45 25.95 45 25.95Q49.50 25.95 52.43 27.67Q55.35 29.40 56.78 32.52Q58.20 35.65 58.20 39.90Q58.20 43.00 57.40 45.57Q56.60 48.15 54.95 49.97Q53.30 51.80 50.83 52.80Q48.35 53.80 44.95 53.80M44.95 49.10Q47.50 49.10 49.05 48.00Q50.60 46.90 51.35 44.80Q52.10 42.70 52.10 39.90Q52.10 37 51.35 34.92Q50.60 32.85 49.05 31.75Q47.50 30.65 45 30.65Q41.25 30.65 39.50 33.10Q37.75 35.55 37.75 39.90Q37.75 42.70 38.50 44.80Q39.25 46.90 40.85 48.00Q42.45 49.10 44.95 49.10ZM78.40 25.85Q80.90 25.85 83.15 26.32Q85.40 26.80 87.05 27.60L85.10 32.25Q83.65 31.50 81.93 31.10Q80.20 30.70 78.50 30.70Q75.75 30.70 73.90 31.82Q72.05 32.95 71.13 35.02Q70.20 37.10 70.20 39.95Q70.20 42.80 70.98 44.85Q71.75 46.90 73.35 47.97Q74.95 49.05 77.40 49.05Q78.70 49.05 79.73 48.95Q80.75 48.85 81.70 48.60L81.70 42.65L76.35 42.65L76.35 38.05L87.40 38.05L87.40 52.15Q85.10 52.90 82.60 53.40Q80.10 53.90 77.05 53.90Q73.15 53.90 70.25 52.37Q67.35 50.85 65.75 47.72Q64.15 44.60 64.15 39.90Q64.15 35.35 65.90 32.22Q67.65 29.10 70.85 27.47Q74.05 25.85 78.40 25.85ZM118.65 39.50Q118.65 44.15 116.85 47.25Q115.05 50.35 111.73 51.90Q108.40 53.45 103.70 53.45L95.40 53.45L95.40 26.30L104.50 26.30Q111.05 26.30 114.85 29.67Q118.65 33.05 118.65 39.50M112.55 39.70Q112.55 35.20 110.48 33.07Q108.40 30.95 104.45 30.95L101.30 30.95L101.30 48.80L103.80 48.80Q108.25 48.80 110.40 46.52Q112.55 44.25 112.55 39.70ZM122.60 53.45L132.60 26.30L139.35 26.30L149.40 53.45L143.25 53.45L140.85 46.75L131.15 46.75L128.85 53.45L122.60 53.45M132.60 42.05L139.45 42.05L137.40 35.85Q137.20 35.25 136.93 34.38Q136.65 33.50 136.40 32.55Q136.15 31.60 136 30.95Q135.85 31.60 135.63 32.55Q135.40 33.50 135.15 34.38Q134.90 35.25 134.70 35.85L132.60 42.05ZM154.60 53.45L154.60 26.35L162 26.35L174.35 46.80Q174.30 46.10 174.25 44.90Q174.20 43.70 174.15 42.40Q174.10 41.10 174.10 40.05L174.10 26.35L179.40 26.35L179.40 53.45L171.95 53.45L159.65 32.85Q159.70 33.50 159.75 34.77Q159.80 36.05 159.82 37.42Q159.85 38.80 159.90 39.95L159.90 53.45L154.60 53.45ZM212 17.75Q218.95 17.75 222.13 20.65Q225.30 23.55 225.30 28.65Q225.30 30.95 224.60 33.02Q223.90 35.10 222.25 36.75Q220.60 38.40 217.92 39.35Q215.25 40.30 211.30 40.30L207.75 40.30L207.75 53.45L201.35 53.45L201.35 17.75L212 17.75M211.60 23.05L207.75 23.05L207.75 35L210.65 35Q213.25 35 215.07 34.38Q216.90 33.75 217.85 32.40Q218.80 31.05 218.80 28.90Q218.80 25.95 217.05 24.50Q215.30 23.05 211.60 23.05ZM231.80 53.45L231.80 26.35L241.70 26.35Q246.85 26.35 249.60 28.37Q252.35 30.40 252.35 34.35Q252.35 36.35 251.60 37.80Q250.85 39.25 249.62 40.22Q248.40 41.20 246.85 41.80L254.90 53.45L248.30 53.45L241.70 43.05L237.65 43.05L237.65 53.45L231.80 53.45M241.05 38.50Q243.70 38.50 245.12 37.55Q246.55 36.60 246.55 34.55Q246.55 32.80 245.32 31.85Q244.10 30.90 241.35 30.90L237.65 30.90L237.65 38.50L241.05 38.50ZM270.70 26.35L270.70 29.60L267.05 30.85L267.05 48.95L270.70 50.15L270.70 53.45L257.55 53.45L257.55 50.15L261.20 48.95L261.20 30.85L257.55 29.60L257.55 26.35L270.70 26.35ZM288.55 30.60Q286.25 30.60 284.60 31.72Q282.95 32.85 282.07 34.92Q281.20 37 281.20 39.90Q281.20 44.30 283 46.70Q284.80 49.10 288.65 49.10Q290.40 49.10 292.15 48.70Q293.90 48.30 295.70 47.65L295.70 52.50Q293.95 53.20 292.13 53.52Q290.30 53.85 288 53.85Q283.65 53.85 280.78 52.10Q277.90 50.35 276.53 47.20Q275.15 44.05 275.15 39.85Q275.15 35.75 276.70 32.57Q278.25 29.40 281.25 27.62Q284.25 25.85 288.60 25.85Q290.70 25.85 292.82 26.35Q294.95 26.85 296.85 27.75L294.95 32.30Q293.40 31.60 291.82 31.10Q290.25 30.60 288.55 30.60ZM315.65 53.80Q312.25 53.80 309.75 52.80Q307.25 51.80 305.63 49.95Q304 48.10 303.20 45.55Q302.40 43.00 302.40 39.85Q302.40 35.65 303.82 32.52Q305.25 29.40 308.20 27.67Q311.15 25.95 315.70 25.95Q320.20 25.95 323.13 27.67Q326.05 29.40 327.48 32.52Q328.90 35.65 328.90 39.90Q328.90 43.00 328.10 45.57Q327.30 48.15 325.65 49.97Q324 51.80 321.52 52.80Q319.05 53.80 315.65 53.80M315.65 49.10Q318.20 49.10 319.75 48.00Q321.30 46.90 322.05 44.80Q322.80 42.70 322.80 39.90Q322.80 37 322.05 34.92Q321.30 32.85 319.75 31.75Q318.20 30.65 315.70 30.65Q311.95 30.65 310.20 33.10Q308.45 35.55 308.45 39.90Q308.45 42.70 309.20 44.80Q309.95 46.90 311.55 48.00Q313.15 49.10 315.65 49.10ZM344.55 26.35Q350 26.35 352.55 28.55Q355.10 30.75 355.10 34.75Q355.10 37.05 354.07 39.10Q353.05 41.15 350.68 42.45Q348.30 43.75 344.15 43.75L341.75 43.75L341.75 53.45L335.85 53.45L335.85 26.35L344.55 26.35M344.30 30.95L341.75 30.95L341.75 39.10L343.55 39.10Q345.35 39.10 346.60 38.67Q347.85 38.25 348.50 37.30Q349.15 36.35 349.15 34.85Q349.15 32.90 348 31.92Q346.85 30.95 344.30 30.95ZM378.40 53.45L362.10 53.45L362.10 26.35L378.40 26.35L378.40 30.95L368 30.95L368 37.05L377.75 37.05L377.75 41.65L368 41.65L368 48.80L378.40 48.80L378.40 53.45Z"/></g></g></g></svg>